<?xml version="1.0" encoding="UTF-8"?>
<svg id="Layer_1" data-name="Layer 1" xmlns="http://www.w3.org/2000/svg" viewBox="0 0 100 100">
  <defs>
    <style>
      .cls-1 {
        fill: none;
        opacity: .93;
        stroke: #a0a0a0;
        stroke-linecap: round;
      }

      .cls-1, .cls-2 {
        stroke-miterlimit: 10;
        stroke-width: 3px;
      }

      .cls-2 {
        fill: #d9ecff;
        stroke: #000;
      }

      .cls-3, .cls-4, .cls-5 {
        stroke-width: 0px;
      }

      .cls-4 {
        fill: #fff;
      }

      .cls-5 {
        fill: #005ac6;
      }
    </style>
  </defs>
  <line class="cls-1" x1="35.5" y1="1.5" x2="35.5" y2="98.5"/>
  <line class="cls-1" x1="64" y1="1.5" x2="64" y2="98.5"/>
  <line class="cls-1" x1="98.5" y1="36" x2="1.5" y2="36"/>
  <line class="cls-1" x1="98.5" y1="65" x2="1.5" y2="65"/>
  <g>
    <circle class="cls-5" cx="49.5" cy="50.5" r="14"/>
    <path class="cls-4" d="M46.69,47.28c0-.09,0-.17,0-.26,0-.03.02-.24,0-.05-.02.2.02-.06.03-.11.01-.06.03-.12.05-.18.02-.08.05-.16.08-.24-.02.06-.13.26,0,.01.08-.15.17-.29.26-.44.03-.05.17-.23,0,0,.04-.05.08-.1.13-.15.1-.12.2-.23.31-.33.13-.12.26-.24.39-.35-.02.02-.19.13-.04.04.09-.06.18-.13.27-.18.13-.09.27-.16.41-.24.07-.04.45-.21.2-.11.34-.14.69-.22,1.05-.31.06-.01.3-.05,0-.01.07,0,.13-.01.2-.02.16-.01.31-.02.47-.01.09,0,.18,0,.27.01.08,0,.27.06,0,0,.17.04.35.07.52.13.08.03.17.06.25.09-.03-.01-.19-.1-.05-.01.11.07.23.13.34.2.22.14,0,0-.05-.04.05.05.11.09.16.15.1.1.2.21.29.32-.19-.23-.03-.02.04.1.04.07.18.25.18.34,0-.18-.07-.21-.03-.06.02.07.05.14.07.21.01.05.02.1.04.16.07.25.08.06.01-.03.05.07.02.28.02.37,0,.07-.01.14,0,.21,0,.18,0-.15.02-.14.01,0-.09.39-.11.4s.15-.27.05-.12c-.05.07-.09.15-.13.23s-.16.16.03-.03c-.05.05-.09.1-.13.14-.06.06-.36.31-.14.15-.28.21-.59.39-.9.56-.73.42-1.46.87-1.99,1.54-.69.88-1.04,1.91-.75,3.02.2.76,1.08,1.29,1.85,1.05s1.26-1.03,1.05-1.85c-.09-.35,0,.02,0,.02-.01,0,.05-.22-.02.03,0-.01.15-.37.05-.18-.09.17.06-.07.08-.11.08-.19-.14.14,0-.02.06-.07.12-.14.18-.2s.14-.12.2-.19c.11-.11-.15.09.07-.05.73-.44,1.49-.84,2.15-1.39,1.3-1.08,1.74-2.88,1.23-4.47s-1.76-2.85-3.39-3.32c-1.73-.49-3.67-.08-5.19.84-1.72,1.04-3.12,2.83-3.07,4.92.02.78.68,1.54,1.5,1.5s1.52-.66,1.5-1.5h0Z"/>
    <path class="cls-4" d="M50,58.36c1.93,0,1.93-3,0-3s-1.93,3,0,3h0Z"/>
  </g>
  <g>
    <rect class="cls-2" x="64.05" y="64.13" width="34" height="34.5"/>
    <path class="cls-3" d="M73.37,83.65c.06-.72.77-1.27,1.48-1.16.83.13,1.18.98,1.61,1.59.61.86,1.35,1.61,2.43,1.8,1.25.22,2.4-.4,3.2-1.33.34-.4.63-.85.93-1.28.1-.14.47-.74.67-.75s.39.33.5.47c.35.47.63.99,1.03,1.43.82.89,2,1.36,3.18.95,1.25-.43,1.96-1.64,1.65-2.92-.46-1.87-3.35-1.08-2.89.8.4-.62.48-.86.25-.7.18.04.23.03.16-.02-.05-.11-.2-.19-.27-.28-.32-.4-.57-.86-.88-1.26-.7-.88-1.67-1.52-2.83-1.45-1.23.07-2.16.89-2.87,1.83-.28.38-.52.8-.83,1.16-.14.17-.29.35-.5.44-.11.05.05.01.1.03-.6-.22-1.08-1.39-1.47-1.87-.74-.9-1.77-1.46-2.93-1.59-2.54-.28-4.51,1.69-4.73,4.13-.07.81.74,1.5,1.5,1.5.87,0,1.43-.69,1.5-1.5h0Z"/>
    <path class="cls-3" d="M69.72,74.38c.9,2.06,3.65,1.88,5.14.68.79-.63,1.28-1.58,2.08-2.18.66-.5,1.01-.1,1.45.48,1.23,1.63,2.52,3.81,4.96,3.19,1.06-.27,1.84-1.03,2.49-1.87.28-.36.53-.77.87-1.07.2-.17.47-.18.34-.29,1.44,1.28,3.57-.84,2.12-2.12-.85-.76-1.92-1-3.02-.67-1.03.32-1.74,1.09-2.37,1.93-.33.43-.82,1.35-1.43,1.1-.67-.27-1.11-1.37-1.52-1.92-1.3-1.74-3.36-2.71-5.36-1.4-.87.57-1.43,1.39-2.13,2.14-.19.2-.5.54-.77.6-.24.05-.18.07-.26-.11-.33-.74-1.41-.91-2.05-.54-.77.45-.86,1.31-.54,2.05h0Z"/>
  </g>
</svg>